<svg xmlns="http://www.w3.org/2000/svg" version="1.1" xmlns:xlink="http://www.w3.org/1999/xlink" width="512" height="512" x="0" y="0" viewBox="0 0 32 32" style="enable-background:new 0 0 512 512" xml:space="preserve" class=""><g><path d="m29.5 7.065-4.25-4.25c-.56-.57-1.32-.88-2.12-.88H8.87c-.8 0-1.56.31-2.12.88L2.5 7.065c-1 1-1.17 2.53-.41 3.73l11.38 17.88c.55.87 1.5 1.39 2.53 1.39s1.98-.52 2.53-1.39l11.38-17.88c.76-1.2.59-2.73-.41-3.73zm-6.37-3.13c.26 0 .52.11.71.29l3.67 3.68h-4.84l-3.97-3.97zm-3.29 3.97h-7.68L16 4.065zM8.16 4.225c.19-.18.45-.29.71-.29h4.43l-3.97 3.97H4.48zm-4.27 5.68h5.1l4.16 14.55zM16 27.145l-4.93-17.24h9.86zm2.85-2.69 4.16-14.55h5.1z" fill="#1a1a1a" opacity="1" data-original="#000000" class=""></path></g></svg>