<svg width="3596" height="398" viewBox="0 0 3596 398" fill="none" xmlns="http://www.w3.org/2000/svg">
<path d="M791 159.25L950.5 311.25L953.5 341.5L794 189.75L791 159.25ZM792.25 320.25V338H771.5V335.5C771.5 335.5 772.25 335.5 773.75 335.5C775.25 335.5 776.083 335.5 776.25 335.5C780.417 335.5 784 334 787 331C790 328 791.5 324.417 791.5 320.25H792.25ZM827.25 320.25C827.25 324.417 828.75 328 831.75 331C834.75 334 838.333 335.5 842.5 335.5C842.667 335.5 843.5 335.5 845 335.5C846.5 335.5 847.25 335.5 847.25 335.5V338H826.5V320.25H827.25ZM791 159.25L827 197.5L827.25 338H791.5V190.5C791.5 181.167 791 173.667 790 168C789 162.167 788.5 159.25 788.5 159.25H791ZM952.75 163V309.5C952.75 315.667 953 321.25 953.5 326.25C954 331.083 954.5 334.833 955 337.5C955.5 340.167 955.75 341.5 955.75 341.5H953.5L917.25 301V163H952.75ZM972.75 163V165.5C972.75 165.5 972 165.5 970.5 165.5C969 165.5 968.25 165.5 968.25 165.5C964.083 165.5 960.5 167 957.5 170C954.5 172.833 952.917 176.417 952.75 180.75H952V163H972.75ZM897 163H917.75V180.75H917.25C917.083 176.417 915.5 172.833 912.5 170C909.667 167 906.083 165.5 901.75 165.5C901.75 165.5 901 165.5 899.5 165.5C898 165.5 897.167 165.5 897 165.5V163ZM1055.66 181.25L1129.66 336.75H1087.41L1040.91 227L1055.66 181.25ZM1008.66 321.5C1006.83 326 1007.08 329.5 1009.41 332C1011.75 334.333 1014.33 335.5 1017.16 335.5H1019.16V338H969.164V335.5C969.164 335.5 969.497 335.5 970.164 335.5C970.831 335.5 971.164 335.5 971.164 335.5C974.497 335.5 977.997 334.5 981.664 332.5C985.331 330.333 988.331 326.667 990.664 321.5H1008.66ZM1055.66 181.25L1056.16 211.25L1001.91 337.25H983.414L1041.91 211.5C1042.25 210.5 1043 208.75 1044.16 206.25C1045.33 203.583 1046.58 200.667 1047.91 197.5C1049.25 194.167 1050.5 191.083 1051.66 188.25C1052.83 185.25 1053.5 182.917 1053.66 181.25H1055.66ZM1077.41 289V298.75H1013.66V289H1077.41ZM1081.16 321.5H1122.41C1124.91 326.667 1128 330.333 1131.66 332.5C1135.33 334.5 1138.83 335.5 1142.16 335.5C1142.16 335.5 1142.5 335.5 1143.16 335.5C1143.83 335.5 1144.16 335.5 1144.16 335.5V338H1070.66V335.5H1072.66C1075.5 335.5 1078.08 334.333 1080.41 332C1082.75 329.5 1083 326 1081.16 321.5ZM1226.3 159.25L1385.8 311.25L1388.8 341.5L1229.3 189.75L1226.3 159.25ZM1227.55 320.25V338H1206.8V335.5C1206.8 335.5 1207.55 335.5 1209.05 335.5C1210.55 335.5 1211.39 335.5 1211.55 335.5C1215.72 335.5 1219.3 334 1222.3 331C1225.3 328 1226.8 324.417 1226.8 320.25H1227.55ZM1262.55 320.25C1262.55 324.417 1264.05 328 1267.05 331C1270.05 334 1273.64 335.5 1277.8 335.5C1277.97 335.5 1278.8 335.5 1280.3 335.5C1281.8 335.5 1282.55 335.5 1282.55 335.5V338H1261.8V320.25H1262.55ZM1226.3 159.25L1262.3 197.5L1262.55 338H1226.8V190.5C1226.8 181.167 1226.3 173.667 1225.3 168C1224.3 162.167 1223.8 159.25 1223.8 159.25H1226.3ZM1388.05 163V309.5C1388.05 315.667 1388.3 321.25 1388.8 326.25C1389.3 331.083 1389.8 334.833 1390.3 337.5C1390.8 340.167 1391.05 341.5 1391.05 341.5H1388.8L1352.55 301V163H1388.05ZM1408.05 163V165.5C1408.05 165.5 1407.3 165.5 1405.8 165.5C1404.3 165.5 1403.55 165.5 1403.55 165.5C1399.39 165.5 1395.8 167 1392.8 170C1389.8 172.833 1388.22 176.417 1388.05 180.75H1387.3V163H1408.05ZM1332.3 163H1353.05V180.75H1352.55C1352.39 176.417 1350.8 172.833 1347.8 170C1344.97 167 1341.39 165.5 1337.05 165.5C1337.05 165.5 1336.3 165.5 1334.8 165.5C1333.3 165.5 1332.47 165.5 1332.3 165.5V163ZM1490.97 181.25L1564.97 336.75H1522.72L1476.22 227L1490.97 181.25ZM1443.97 321.5C1442.13 326 1442.38 329.5 1444.72 332C1447.05 334.333 1449.63 335.5 1452.47 335.5H1454.47V338H1404.47V335.5C1404.47 335.5 1404.8 335.5 1405.47 335.5C1406.13 335.5 1406.47 335.5 1406.47 335.5C1409.8 335.5 1413.3 334.5 1416.97 332.5C1420.63 330.333 1423.63 326.667 1425.97 321.5H1443.97ZM1490.97 181.25L1491.47 211.25L1437.22 337.25H1418.72L1477.22 211.5C1477.55 210.5 1478.3 208.75 1479.47 206.25C1480.63 203.583 1481.88 200.667 1483.22 197.5C1484.55 194.167 1485.8 191.083 1486.97 188.25C1488.13 185.25 1488.8 182.917 1488.97 181.25H1490.97ZM1512.72 289V298.75H1448.97V289H1512.72ZM1516.47 321.5H1557.72C1560.22 326.667 1563.3 330.333 1566.97 332.5C1570.63 334.5 1574.13 335.5 1577.47 335.5C1577.47 335.5 1577.8 335.5 1578.47 335.5C1579.13 335.5 1579.47 335.5 1579.47 335.5V338H1505.97V335.5H1507.97C1510.8 335.5 1513.38 334.333 1515.72 332C1518.05 329.5 1518.3 326 1516.47 321.5ZM1651.86 181.25L1725.86 336.75H1683.61L1637.11 227L1651.86 181.25ZM1604.86 321.5C1603.02 326 1603.27 329.5 1605.61 332C1607.94 334.333 1610.52 335.5 1613.36 335.5H1615.36V338H1565.36V335.5C1565.36 335.5 1565.69 335.5 1566.36 335.5C1567.02 335.5 1567.36 335.5 1567.36 335.5C1570.69 335.5 1574.19 334.5 1577.86 332.5C1581.52 330.333 1584.52 326.667 1586.86 321.5H1604.86ZM1651.86 181.25L1652.36 211.25L1598.11 337.25H1579.61L1638.11 211.5C1638.44 210.5 1639.19 208.75 1640.36 206.25C1641.52 203.583 1642.77 200.667 1644.11 197.5C1645.44 194.167 1646.69 191.083 1647.86 188.25C1649.02 185.25 1649.69 182.917 1649.86 181.25H1651.86ZM1673.61 289V298.75H1609.86V289H1673.61ZM1677.36 321.5H1718.61C1721.11 326.667 1724.19 330.333 1727.86 332.5C1731.52 334.5 1735.02 335.5 1738.36 335.5C1738.36 335.5 1738.69 335.5 1739.36 335.5C1740.02 335.5 1740.36 335.5 1740.36 335.5V338H1666.86V335.5H1668.86C1671.69 335.5 1674.27 334.333 1676.61 332C1678.94 329.5 1679.19 326 1677.36 321.5ZM1897.74 163.75V338H1860.24V163.75H1897.74ZM1958.99 162.75V173.25H1798.99V162.75H1958.99ZM1958.99 172.5V202L1956.49 201.75V199C1956.49 191.167 1954.16 185 1949.49 180.5C1944.99 175.833 1938.83 173.417 1930.99 173.25V172.5H1958.99ZM1958.99 158.25V165.5L1928.49 162.75C1932.16 162.75 1935.99 162.5 1939.99 162C1944.16 161.5 1947.99 160.917 1951.49 160.25C1954.99 159.583 1957.49 158.917 1958.99 158.25ZM1860.99 319.75V338H1840.99V335.5C1840.99 335.5 1841.49 335.5 1842.49 335.5C1843.66 335.5 1844.24 335.5 1844.24 335.5C1848.58 335.5 1852.24 334 1855.24 331C1858.41 327.833 1860.08 324.083 1860.24 319.75H1860.99ZM1896.99 319.75H1897.74C1897.91 324.083 1899.49 327.833 1902.49 331C1905.66 334 1909.41 335.5 1913.74 335.5C1913.74 335.5 1914.24 335.5 1915.24 335.5C1916.41 335.5 1916.99 335.5 1916.99 335.5V338H1896.99V319.75ZM1826.74 172.5V173.25C1819.08 173.417 1812.91 175.833 1808.24 180.5C1803.74 185 1801.49 191.167 1801.49 199V201.75L1798.99 202V172.5H1826.74ZM1798.99 158.25C1800.66 158.917 1803.16 159.583 1806.49 160.25C1809.99 160.917 1813.83 161.5 1817.99 162C1822.16 162.5 1825.99 162.75 1829.49 162.75L1798.99 165.5V158.25ZM2124.99 188V338H2089.24V188H2124.99ZM2023.24 188V338H1987.24V188H2023.24ZM2091.24 258.25V268.25H2020.99V258.25H2091.24ZM1987.99 322.25V338H1970.74V335.5C1970.74 335.5 1971.16 335.5 1971.99 335.5C1972.99 335.5 1973.58 335.5 1973.74 335.5C1977.41 335.5 1980.58 334.25 1983.24 331.75C1985.91 329.083 1987.24 325.917 1987.24 322.25H1987.99ZM2022.74 322.25H2023.24C2023.41 325.917 2024.83 329.083 2027.49 331.75C2030.16 334.25 2033.33 335.5 2036.99 335.5C2036.99 335.5 2037.41 335.5 2038.24 335.5C2039.24 335.5 2039.74 335.5 2039.74 335.5V338H2022.74V322.25ZM2022.74 203.75V188H2039.74V190.5C2039.74 190.5 2039.24 190.5 2038.24 190.5C2037.41 190.5 2036.99 190.5 2036.99 190.5C2033.33 190.5 2030.16 191.75 2027.49 194.25C2024.83 196.75 2023.41 199.917 2023.24 203.75H2022.74ZM1987.99 203.75H1987.24C1987.24 199.917 1985.91 196.75 1983.24 194.25C1980.58 191.75 1977.41 190.5 1973.74 190.5C1973.58 190.5 1972.99 190.5 1971.99 190.5C1971.16 190.5 1970.74 190.5 1970.74 190.5V188H1987.99V203.75ZM2089.74 322.25V338H2072.74V335.5C2072.74 335.5 2073.16 335.5 2073.99 335.5C2074.99 335.5 2075.49 335.5 2075.49 335.5C2079.16 335.5 2082.33 334.25 2084.99 331.75C2087.66 329.083 2088.99 325.917 2088.99 322.25H2089.74ZM2124.24 322.25H2124.99C2125.16 325.917 2126.49 329.083 2128.99 331.75C2131.66 334.25 2134.91 335.5 2138.74 335.5C2138.74 335.5 2139.16 335.5 2139.99 335.5C2140.99 335.5 2141.49 335.5 2141.49 335.5V338H2124.24V322.25ZM2124.49 203.75V188H2141.74V190.5C2141.74 190.5 2141.24 190.5 2140.24 190.5C2139.24 190.5 2138.74 190.5 2138.74 190.5C2134.91 190.5 2131.66 191.75 2128.99 194.25C2126.49 196.75 2125.24 199.917 2125.24 203.75H2124.49ZM2089.74 203.75H2088.99C2088.99 199.917 2087.66 196.75 2084.99 194.25C2082.33 191.75 2079.16 190.5 2075.49 190.5C2075.49 190.5 2074.99 190.5 2073.99 190.5C2073.16 190.5 2072.74 190.5 2072.74 190.5V188H2089.74V203.75ZM2229.74 181.25L2303.74 336.75H2261.49L2214.99 227L2229.74 181.25ZM2182.74 321.5C2180.9 326 2181.15 329.5 2183.49 332C2185.82 334.333 2188.4 335.5 2191.24 335.5H2193.24V338H2143.24V335.5C2143.24 335.5 2143.57 335.5 2144.24 335.5C2144.9 335.5 2145.24 335.5 2145.24 335.5C2148.57 335.5 2152.07 334.5 2155.74 332.5C2159.4 330.333 2162.4 326.667 2164.74 321.5H2182.74ZM2229.74 181.25L2230.24 211.25L2175.99 337.25H2157.49L2215.99 211.5C2216.32 210.5 2217.07 208.75 2218.24 206.25C2219.4 203.583 2220.65 200.667 2221.99 197.5C2223.32 194.167 2224.57 191.083 2225.74 188.25C2226.9 185.25 2227.57 182.917 2227.74 181.25H2229.74ZM2251.49 289V298.75H2187.74V289H2251.49ZM2255.24 321.5H2296.49C2298.99 326.667 2302.07 330.333 2305.74 332.5C2309.4 334.5 2312.9 335.5 2316.24 335.5C2316.24 335.5 2316.57 335.5 2317.24 335.5C2317.9 335.5 2318.24 335.5 2318.24 335.5V338H2244.74V335.5H2246.74C2249.57 335.5 2252.15 334.333 2254.49 332C2256.82 329.5 2257.07 326 2255.24 321.5ZM2372.88 188V338H2336.88V188H2372.88ZM2337.63 322.25V338H2319.38V335.5C2319.38 335.5 2319.88 335.5 2320.88 335.5C2321.88 335.5 2322.46 335.5 2322.63 335.5C2326.46 335.5 2329.79 334.25 2332.63 331.75C2335.46 329.083 2336.88 325.917 2336.88 322.25H2337.63ZM2372.38 322.25H2372.88C2373.04 325.917 2374.46 329.083 2377.13 331.75C2379.96 334.25 2383.38 335.5 2387.38 335.5C2387.38 335.5 2387.79 335.5 2388.63 335.5C2389.63 335.5 2390.21 335.5 2390.38 335.5V338H2372.38V322.25ZM2372.38 203.75V188H2390.38L2390.13 190.5C2390.13 190.5 2389.71 190.5 2388.88 190.5C2388.04 190.5 2387.54 190.5 2387.38 190.5C2383.38 190.5 2379.96 191.75 2377.13 194.25C2374.46 196.75 2373.04 199.917 2372.88 203.75H2372.38ZM2337.63 203.75H2336.88C2336.88 199.917 2335.46 196.75 2332.63 194.25C2329.79 191.75 2326.38 190.5 2322.38 190.5C2322.38 190.5 2321.88 190.5 2320.88 190.5C2319.88 190.5 2319.38 190.5 2319.38 190.5V188H2337.63V203.75ZM2656.27 159.5L2658.27 186.75L2584.02 315.5C2584.02 315.5 2583.18 317 2581.52 320C2579.85 322.833 2578.18 326.333 2576.52 330.5C2575.02 334.667 2574.27 338.833 2574.27 343H2571.77L2562.02 321.25L2656.27 159.5ZM2486.77 319.75V338H2459.02V335.5C2459.18 335.5 2459.93 335.5 2461.27 335.5C2462.43 335.5 2463.02 335.5 2463.02 335.5C2467.52 335.5 2471.52 334.167 2475.02 331.5C2478.52 328.667 2480.6 324.75 2481.27 319.75H2486.77ZM2497.77 323.75C2497.77 323.917 2497.77 324.083 2497.77 324.25C2497.77 324.417 2497.77 324.667 2497.77 325C2497.77 327.667 2498.68 330.167 2500.52 332.5C2502.52 334.667 2504.85 335.75 2507.52 335.75H2511.27V338H2496.02V323.75H2497.77ZM2502.02 159.5H2504.27L2513.02 184.5L2496.27 338H2478.77L2502.02 159.5ZM2504.27 159.5L2586.02 293.75L2571.77 343L2497.77 218.75L2504.27 159.5ZM2658.52 159.5L2682.27 338H2642.02L2629.52 223L2656.27 159.5H2658.52ZM2674.52 319.75H2679.77C2680.6 324.75 2682.77 328.667 2686.27 331.5C2689.77 334.167 2693.68 335.5 2698.02 335.5C2698.02 335.5 2698.68 335.5 2700.02 335.5C2701.35 335.5 2702.02 335.5 2702.02 335.5V338H2674.52V319.75ZM2640.52 323.75H2642.27V338H2627.02V335.75H2630.77C2633.6 335.75 2635.93 334.667 2637.77 332.5C2639.6 330.167 2640.52 327.667 2640.52 325C2640.52 324.667 2640.52 324.417 2640.52 324.25C2640.52 324.083 2640.52 323.917 2640.52 323.75ZM2779.3 181.25L2853.3 336.75H2811.05L2764.55 227L2779.3 181.25ZM2732.3 321.5C2730.46 326 2730.71 329.5 2733.05 332C2735.38 334.333 2737.96 335.5 2740.8 335.5H2742.8V338H2692.8V335.5C2692.8 335.5 2693.13 335.5 2693.8 335.5C2694.46 335.5 2694.8 335.5 2694.8 335.5C2698.13 335.5 2701.63 334.5 2705.3 332.5C2708.96 330.333 2711.96 326.667 2714.3 321.5H2732.3ZM2779.3 181.25L2779.8 211.25L2725.55 337.25H2707.05L2765.55 211.5C2765.88 210.5 2766.63 208.75 2767.8 206.25C2768.96 203.583 2770.21 200.667 2771.55 197.5C2772.88 194.167 2774.13 191.083 2775.3 188.25C2776.46 185.25 2777.13 182.917 2777.3 181.25H2779.3ZM2801.05 289V298.75H2737.3V289H2801.05ZM2804.8 321.5H2846.05C2848.55 326.667 2851.63 330.333 2855.3 332.5C2858.96 334.5 2862.46 335.5 2865.8 335.5C2865.8 335.5 2866.13 335.5 2866.8 335.5C2867.46 335.5 2867.8 335.5 2867.8 335.5V338H2794.3V335.5H2796.3C2799.13 335.5 2801.71 334.333 2804.05 332C2806.38 329.5 2806.63 326 2804.8 321.5ZM2922.87 184.75C2926.2 184.75 2930.2 184.917 2934.87 185.25C2939.7 185.583 2944.45 186 2949.12 186.5C2953.78 186.833 2957.87 187.333 2961.37 188C2965.03 188.5 2967.53 189 2968.87 189.5L2965.62 220H2963.37C2963.37 212.333 2960.7 206.25 2955.37 201.75C2950.03 197.25 2942.37 195 2932.37 195C2924.37 195 2917.87 196.75 2912.87 200.25C2908.03 203.75 2905.45 208.417 2905.12 214.25C2904.78 217.25 2905.28 220 2906.62 222.5C2908.12 224.833 2910.12 226.917 2912.62 228.75C2915.28 230.583 2918.2 232.417 2921.37 234.25L2960.62 258.5C2967.28 261.833 2972.53 266.667 2976.37 273C2980.2 279.333 2981.87 287 2981.37 296C2980.87 305.333 2978.12 313.417 2973.12 320.25C2968.28 327.083 2961.53 332.333 2952.87 336C2944.37 339.5 2934.28 341.25 2922.62 341.25C2915.45 341.25 2908.78 340.667 2902.62 339.5C2896.45 338.333 2891.12 336.75 2886.62 334.75C2882.28 332.75 2878.95 330.5 2876.62 328C2875.28 324.667 2874.7 320.667 2874.87 316C2875.03 311.167 2875.78 306.417 2877.12 301.75C2878.45 296.917 2880.12 292.917 2882.12 289.75H2884.12C2883.62 297.25 2884.95 304.167 2888.12 310.5C2891.45 316.833 2896.28 321.917 2902.62 325.75C2908.95 329.417 2916.53 331.25 2925.37 331.25C2935.03 331.25 2942.28 329 2947.12 324.5C2951.95 320 2954.37 314.75 2954.37 308.75C2954.37 304.25 2952.87 300.25 2949.87 296.75C2947.03 293.083 2942.28 289.5 2935.62 286L2900.12 263.5C2891.78 259.167 2885.7 253.417 2881.87 246.25C2878.2 239.083 2876.87 231.25 2877.87 222.75C2878.7 214.75 2881.03 207.917 2884.87 202.25C2888.87 196.583 2894.12 192.25 2900.62 189.25C2907.12 186.25 2914.53 184.75 2922.87 184.75ZM2968.87 187L2968.62 191.5H2941.87V187H2968.87ZM3051.53 184.75C3054.86 184.75 3058.86 184.917 3063.53 185.25C3068.36 185.583 3073.11 186 3077.78 186.5C3082.44 186.833 3086.53 187.333 3090.03 188C3093.69 188.5 3096.19 189 3097.53 189.5L3094.28 220H3092.03C3092.03 212.333 3089.36 206.25 3084.03 201.75C3078.69 197.25 3071.03 195 3061.03 195C3053.03 195 3046.53 196.75 3041.53 200.25C3036.69 203.75 3034.11 208.417 3033.78 214.25C3033.44 217.25 3033.94 220 3035.28 222.5C3036.78 224.833 3038.78 226.917 3041.28 228.75C3043.94 230.583 3046.86 232.417 3050.03 234.25L3089.28 258.5C3095.94 261.833 3101.19 266.667 3105.03 273C3108.86 279.333 3110.53 287 3110.03 296C3109.53 305.333 3106.78 313.417 3101.78 320.25C3096.94 327.083 3090.19 332.333 3081.53 336C3073.03 339.5 3062.94 341.25 3051.28 341.25C3044.11 341.25 3037.44 340.667 3031.28 339.5C3025.11 338.333 3019.78 336.75 3015.28 334.75C3010.94 332.75 3007.61 330.5 3005.28 328C3003.94 324.667 3003.36 320.667 3003.53 316C3003.69 311.167 3004.44 306.417 3005.78 301.75C3007.11 296.917 3008.78 292.917 3010.78 289.75H3012.78C3012.28 297.25 3013.61 304.167 3016.78 310.5C3020.11 316.833 3024.94 321.917 3031.28 325.75C3037.61 329.417 3045.19 331.25 3054.03 331.25C3063.69 331.25 3070.94 329 3075.78 324.5C3080.61 320 3083.03 314.75 3083.03 308.75C3083.03 304.25 3081.53 300.25 3078.53 296.75C3075.69 293.083 3070.94 289.5 3064.28 286L3028.78 263.5C3020.44 259.167 3014.36 253.417 3010.53 246.25C3006.86 239.083 3005.53 231.25 3006.53 222.75C3007.36 214.75 3009.69 207.917 3013.53 202.25C3017.53 196.583 3022.78 192.25 3029.28 189.25C3035.78 186.25 3043.19 184.75 3051.53 184.75ZM3097.53 187L3097.28 191.5H3070.53V187H3097.53ZM3198.97 181.25L3272.97 336.75H3230.72L3184.22 227L3198.97 181.25ZM3151.97 321.5C3150.14 326 3150.39 329.5 3152.72 332C3155.06 334.333 3157.64 335.5 3160.47 335.5H3162.47V338H3112.47V335.5C3112.47 335.5 3112.81 335.5 3113.47 335.5C3114.14 335.5 3114.47 335.5 3114.47 335.5C3117.81 335.5 3121.31 334.5 3124.97 332.5C3128.64 330.333 3131.64 326.667 3133.97 321.5H3151.97ZM3198.97 181.25L3199.47 211.25L3145.22 337.25H3126.72L3185.22 211.5C3185.56 210.5 3186.31 208.75 3187.47 206.25C3188.64 203.583 3189.89 200.667 3191.22 197.5C3192.56 194.167 3193.81 191.083 3194.97 188.25C3196.14 185.25 3196.81 182.917 3196.97 181.25H3198.97ZM3220.72 289V298.75H3156.97V289H3220.72ZM3224.47 321.5H3265.72C3268.22 326.667 3271.31 330.333 3274.97 332.5C3278.64 334.5 3282.14 335.5 3285.47 335.5C3285.47 335.5 3285.81 335.5 3286.47 335.5C3287.14 335.5 3287.47 335.5 3287.47 335.5V338H3213.97V335.5H3215.97C3218.81 335.5 3221.39 334.333 3223.72 332C3226.06 329.5 3226.31 326 3224.47 321.5ZM3368.95 184.75C3376.62 184.75 3384.28 185.25 3391.95 186.25C3399.78 187.083 3407.03 188.417 3413.7 190.25C3420.53 191.917 3426.28 193.917 3430.95 196.25V236H3428.95C3426.28 225.333 3422.28 217 3416.95 211C3411.78 205 3405.78 200.75 3398.95 198.25C3392.12 195.75 3384.7 194.5 3376.7 194.5C3365.03 194.5 3355.2 197.25 3347.2 202.75C3339.2 208.25 3333.12 216.25 3328.95 226.75C3324.95 237.083 3322.95 249.583 3322.95 264.25C3322.95 278.083 3324.78 290 3328.45 300C3332.12 310 3337.53 317.75 3344.7 323.25C3351.87 328.75 3360.53 331.5 3370.7 331.5C3376.03 331.5 3381.12 330.667 3385.95 329C3390.78 327.167 3395.03 324.583 3398.7 321.25C3402.37 317.75 3404.95 313.5 3406.45 308.5L3406.7 278.5C3406.7 275.167 3405.7 272.667 3403.7 271C3401.87 269.333 3399.2 268.5 3395.7 268.5H3392.2V266.25H3456.45V268.5H3453.2C3445.87 268.5 3442.28 271.833 3442.45 278.5V311.75C3438.95 316.417 3433.53 321 3426.2 325.5C3418.87 330 3410.2 333.75 3400.2 336.75C3390.2 339.75 3379.28 341.25 3367.45 341.25C3350.78 341.083 3336.28 337.917 3323.95 331.75C3311.62 325.417 3302.03 316.417 3295.2 304.75C3288.37 293.083 3284.95 279.083 3284.95 262.75C3284.95 246.417 3288.37 232.5 3295.2 221C3302.03 209.333 3311.7 200.417 3324.2 194.25C3336.7 187.917 3351.62 184.75 3368.95 184.75ZM3515.92 188V338H3479.92V188H3515.92ZM3574.42 328L3580.17 338H3515.42V328H3574.42ZM3565.92 258.75V268.75H3515.42V258.75H3565.92ZM3577.17 188V198H3515.42V188H3577.17ZM3590.42 292L3580.92 338H3537.67L3545.42 328C3552.59 328 3558.92 326.583 3564.42 323.75C3570.09 320.75 3574.92 316.583 3578.92 311.25C3582.92 305.75 3586.01 299.333 3588.17 292H3590.42ZM3565.92 268.25V290.25H3563.42V288.25C3563.42 282.75 3561.67 278.167 3558.17 274.5C3554.84 270.833 3550.26 268.917 3544.42 268.75V268.25H3565.92ZM3565.92 237.25V259.25H3544.42V258.75C3550.26 258.583 3554.84 256.667 3558.17 253C3561.67 249.167 3563.42 244.5 3563.42 239V237.25H3565.92ZM3577.17 197.5V224H3574.67V221.75C3574.67 214.417 3572.67 208.667 3568.67 204.5C3564.84 200.333 3559.26 198.167 3551.92 198V197.5H3577.17ZM3577.17 184.25V190.25L3550.92 188C3555.76 188 3560.84 187.583 3566.17 186.75C3571.51 185.75 3575.17 184.917 3577.17 184.25ZM3480.42 322.25L3481.67 338H3463.17V335.5C3463.17 335.5 3463.67 335.5 3464.67 335.5C3465.67 335.5 3466.26 335.5 3466.42 335.5C3470.09 335.5 3473.17 334.25 3475.67 331.75C3478.34 329.083 3479.76 325.917 3479.92 322.25H3480.42ZM3480.42 203.75H3479.92C3479.76 199.917 3478.34 196.75 3475.67 194.25C3473.17 191.75 3470.09 190.5 3466.42 190.5C3466.26 190.5 3465.67 190.5 3464.67 190.5C3463.67 190.5 3463.17 190.5 3463.17 190.5V188H3481.67L3480.42 203.75Z" fill="#B49561"/>
<path fill-rule="evenodd" clip-rule="evenodd" d="M341.28 320.952C339.84 320.952 338.496 320.664 337.248 319.896C273.216 283.416 235.008 223.8 235.008 160.44C235.008 97.176 273.216 37.56 337.248 1.08C339.744 -0.36 342.72 -0.36 345.216 1.08C409.248 37.56 447.552 97.176 447.552 160.44C447.552 223.8 409.248 283.416 345.216 319.896C343.968 320.664 342.624 320.952 341.28 320.952ZM341.28 397.944C251.616 397.944 167.328 390.072 103.872 375.864C34.944 360.312 0 339.864 0 315.096C0 301.944 9.984 289.944 29.664 279.288C72.672 338.712 150.912 369.144 222.624 369.144C245.856 369.144 269.088 366.072 291.456 359.64C293.952 358.968 296.064 357.72 297.888 356.088C325.344 358.968 357.12 358.968 384.576 356.088C386.4 357.72 388.608 358.968 391.008 359.64C413.376 366.072 436.608 369.144 459.84 369.144C531.552 369.144 609.888 338.616 652.8 279.288C672.48 289.944 682.464 301.944 682.464 315.096C682.464 339.864 647.52 360.312 578.592 375.864C515.136 390.072 430.848 397.944 341.28 397.944ZM459.84 353.112C437.568 353.112 415.872 350.136 395.424 344.28C477.792 343.128 553.344 294.552 589.536 221.112C610.08 227.352 628.896 236.376 645.12 247.896C648.48 250.296 649.536 254.904 647.328 258.456C611.52 318.36 535.008 353.112 459.84 353.112ZM222.624 353.112C147.456 353.112 70.944 318.36 35.136 258.552C33.024 254.904 33.984 250.296 37.344 247.896C53.568 236.376 72.48 227.352 92.928 221.112C129.216 294.552 204.672 343.128 287.04 344.28C266.592 350.136 244.896 353.112 222.624 353.112ZM392.448 328.344C383.424 328.344 374.304 327.672 365.376 326.424C431.424 283.608 474.432 211.8 461.184 131.832C502.368 115.32 547.776 112.632 589.44 125.016C592.896 125.976 595.296 129.24 595.2 132.792C594.048 193.176 563.136 251.448 512.448 288.6C477.024 314.616 434.592 328.344 392.448 328.344ZM290.016 328.344C247.872 328.344 205.536 314.616 170.016 288.6C119.328 251.448 88.416 193.176 87.264 132.792C87.264 129.24 89.568 125.976 93.024 125.016C134.688 112.632 180.192 115.32 221.376 131.832C208.128 211.8 251.04 283.608 317.184 326.424C308.16 327.672 299.136 328.344 290.016 328.344Z" fill="url(#paint0_linear_99_93)"/>
<defs>
<linearGradient id="paint0_linear_99_93" x1="298.675" y1="-50.8708" x2="383.799" y2="448.849" gradientUnits="userSpaceOnUse">
<stop stop-color="#A17A3A"/>
<stop offset="1" stop-color="#F2ECB6"/>
</linearGradient>
</defs>
</svg>
